<!-- icon666.com - MILLIONS vector ICONS FREE --><svg id="Layer_1" viewBox="0 0 512 512" xmlns="http://www.w3.org/2000/svg"><g><path clip-rule="evenodd" d="m147.242 428.098h218.02v-288.195c0-4.848 3.932-8.781 8.781-8.781s8.781 3.934 8.781 8.781v296.976c0 4.848-3.932 8.781-8.781 8.781h-235.582c-4.848 0-8.78-3.933-8.78-8.781v-296.976c0-4.848 3.932-8.781 8.78-8.781 4.85 0 8.781 3.934 8.781 8.781zm49.004-341.739c-4.85 0-8.781-3.933-8.781-8.781s3.932-8.781 8.781-8.781h120.014c4.848 0 8.779 3.933 8.779 8.781s-3.932 8.781-8.779 8.781zm-98.12 31.053c-4.848 0-8.779-3.93-8.779-8.778 0-4.851 3.932-8.781 8.779-8.781h316.25c4.849 0 8.781 3.93 8.781 8.781 0 4.848-3.932 8.778-8.781 8.778zm89.339 64.968v212.021c0 4.851 3.932 8.781 8.781 8.781 4.848 0 8.78-3.93 8.78-8.781v-212.021c0-4.851-3.932-8.781-8.78-8.781-4.85 0-8.781 3.93-8.781 8.781zm120.014 0v212.021c0 4.851 3.932 8.781 8.781 8.781 4.848 0 8.779-3.93 8.779-8.781v-212.021c0-4.851-3.932-8.781-8.779-8.781-4.85 0-8.781 3.93-8.781 8.781zm-60.008 0v212.021c0 4.851 3.933 8.781 8.781 8.781 4.85 0 8.781-3.93 8.781-8.781v-212.021c0-4.851-3.932-8.781-8.781-8.781-4.848 0-8.781 3.93-8.781 8.781z" fill="rgb(0,0,0)" fill-rule="evenodd"></path></g></svg>